<?xml version="1.0" standalone="no"?>
<!DOCTYPE svg PUBLIC "-//W3C//DTD SVG 1.1//EN" "http://www.w3.org/Graphics/SVG/1.1/DTD/svg11.dtd">
<svg class="icon" viewBox="0 0 1024 1024" version="1.1"
    xmlns="http://www.w3.org/2000/svg"
    xmlns:xlink="http://www.w3.org/1999/xlink" width="200" height="200">
    <path d="M0 0l1024 0l0 1024l-1024 0z" fill="#B6ECFF"></path>
    <path d="M405.004736 471.518886l-96.592238 227.21592H152.229572l6.658547-15.665672 220.368876-258.114229zM316.726766 311.83602l1.701572 3.087283-2.088756-2.180457z" fill="#A03EC3"></path>
    <path d="M717.98193 312.406607l-15.818507 191.824239-76.137712 84.569154-22.41592-40.542249z" fill="#3B9FE6"></path>
    <path d="M873.344637 314.082706l-186.531025 384.647005-0.601154-1.080039 15.94587-193.418826z" fill="#20ADEC"></path>
    <path d="M686.212458 697.649672l0.596059 1.080039h-0.687761z" fill="#A03EC3"></path>
    <path d="M874.429771 311.83602l-1.090229 2.241592-171.176119 190.158328 15.818507-191.829333 0.005095-0.015284 0.27001-0.550209z" fill="#3AB6ED"></path>
    <path d="M472.894408 311.83602l-2.919164 6.872517L400.22607 400.399284 318.428338 314.923303l-1.706666-3.082189z" fill="#7C58B8"></path>
    <path d="M474.045771 313.934965l-4.075622 4.773572 2.919164-6.867423z" fill="#A03EC3"></path>
    <path d="M603.609791 548.257751l-20.816239 42.926488-81.002985-84.650667-27.357612-191.921035z" fill="#5E88DE"></path>
    <path d="M528.674388 695.18392L405.004736 471.518886l19.461095-45.779423 77.319642 80.794109z" fill="#7876D7"></path>
    <path d="M685.713194 698.729711h-155.077413l4.167323-8.589373 69.163304-76.825472z" fill="#0447C1"></path>
    <path d="M529.280637 696.279244l5.522467-6.133811-4.162228 8.584278z" fill="#A03EC3"></path>
    <path d="M626.025711 588.8l-22.059303 24.514866-21.172856-22.130627 20.816239-42.926488z" fill="#3C67CA"></path>
    <path d="M686.808517 698.729711h-0.687761l0.091702-1.080039z" fill="#A03EC3"></path>
    <path d="M379.26209 424.954905L158.898308 683.069134l157.441274-370.326288 2.088756 2.180457z" fill="#B64AC6"></path>
    <path d="M424.470925 425.739463l-19.461094 45.774328-25.747741-46.558886 20.969074-24.555621z" fill="#572FAA"></path>
    <path d="M400.22607 400.399284l-20.96398 24.555621-60.828657-110.026507z" fill="#7241AE"></path>
    <path d="M469.970149 318.703443l-45.499224 107.03602-24.239761-25.345274z" fill="#6249B6"></path>
    <path d="M501.785473 506.533572L424.470925 425.744557l45.504319-107.03602 4.075622-4.773572 0.3719 0.662289v0.015283z" fill="#8E7FDA"></path>
    <path d="M702.163423 504.230846l-15.950965 193.418826-60.186747-108.849672z" fill="#2890E2"></path>
    <path d="M582.793552 591.184239l-47.990448 98.956099-5.522467 6.138906-0.611343-1.095324-26.883821-188.650348z" fill="#5375D8"></path>
    <path d="M603.966408 613.314866l-69.163304 76.825472 47.990448-98.956099z" fill="#2B4FC0"></path>
    <path d="M686.212458 697.649672l-0.091702 1.080039h-0.407562l-81.746786-85.41994 22.059303-24.504676z" fill="#205DC9"></path>
</svg>
