<svg
	xmlns="http://www.w3.org/2000/svg"
	xmlns:xlink="http://www.w3.org/1999/xlink" viewBox="0 0 1300 1300" style="enable-background:new 0 0 1300 1300">
	<style>.st0{clip-path:url(#SVGID_2_)}.st1{fill:#d4abef}.st2{fill:#83cdf0}.st3{fill:#bfacfb}.st4{fill:#a3b7f2}.st5{fill:#a89bed}.st6{display:none}.st7{display:inline;fill:none;stroke:#000;stroke-miterlimit:10}</style>
	<g id="group1">
		<g id="group3">
			<defs>
				<rect id="SVGID_1_" width="1300" height="1300"/>
			</defs>
			<clipPath id="SVGID_2_">
				<use xlink:href="#SVGID_1_" style="overflow:visible"/>
			</clipPath>
		</g>
		<polygon class="st1" points="1046.85,366.54 848.43,933.46 782.28,744.5"/>
		<polygon class="st2" points="650.02,366.54 517.72,555.53 253.15,933.46 451.57,366.54"/>
		<polygon class="st3" points="1046.85,366.54 782.28,744.5 749.24,650 848.43,366.54"/>
		<polygon class="st4" points="650.02,366.54 550.79,650 451.57,933.46 253.15,933.46 517.72,555.53"/>
		<polygon class="st5" points="848.43,933.46 650.02,933.46 550.79,650 650.02,366.54 749.24,650 782.28,744.5"/>
	</g>
	<g id="group2" class="st6">
		<polygon class="st7" points="451.57,650 394.88,820.08 375.98,763.39"/>
		<polygon class="st7" points="338.19,650 300.39,706.7 224.8,820.08 281.49,650"/>
		<polygon class="st7" points="451.57,650 375.98,763.39 366.54,735.04 394.88,650"/>
		<polygon class="st7" points="338.19,650 309.84,735.04 281.49,820.08 224.8,820.08 300.39,706.7"/>
		<polygon class="st7" points="394.88,820.08 338.19,820.08 309.84,735.04 338.19,650 366.54,735.04 375.98,763.39"/>
	</g>
</svg>
