<svg
	xmlns="http://www.w3.org/2000/svg"
	xmlns:xlink="http://www.w3.org/1999/xlink" viewBox="0 0 800 600" style="enable-background:new 0 0 800 600">
	<style>.st0{fill:#d4abef}.st1{fill:#83cdf0}.st2{fill:#bfacfb}.st3{fill:#a3b7f2}.st4{fill:#a89bed}.st5{display:none}.st6{display:inline;fill:none;stroke:#000;stroke-miterlimit:10}</style>
	<g id="group0">
		<polygon class="st0" points="800,0 600.01,600.01 533.33,400.02"/>
		<polygon class="st1" points="400.02,0 266.67,200.03 0,600.01 199.99,0"/>
		<polygon class="st2" points="800,0 533.33,400.02 500.03,300 600.01,0"/>
		<polygon class="st3" points="400.02,0 300,300 199.99,600.01 0,600.01 266.67,200.03"/>
		<polygon class="st4" points="600.01,600.01 400.02,600.01 300,300 400.02,0 500.03,300 533.33,400.02"/>
	</g>
	<g id="group1" class="st5">
		<polygon class="st6" points="453.54,70.08 396.85,240.16 377.95,183.47"/>
		<polygon class="st6" points="340.16,70.08 302.36,126.78 226.77,240.16 283.46,70.08"/>
		<polygon class="st6" points="453.54,70.08 377.95,183.47 368.51,155.12 396.85,70.08"/>
		<polygon class="st6" points="340.16,70.08 311.81,155.12 283.46,240.16 226.77,240.16 302.36,126.78"/>
		<polygon class="st6" points="396.85,240.16 340.16,240.16 311.81,155.12 340.16,70.08 368.51,155.12 377.95,183.47"/>
	</g>
</svg>
